<svg xmlns:xlink="http://www.w3.org/1999/xlink" xmlns="http://www.w3.org/2000/svg" height="22" viewBox="0 0 35 22" width="35"><g fill="#029ac5" transform="matrix(1 0 0 -1 0 21.621886)"><path d="m0 20.7259534c0-3.9956412.00574086-7.2593222.01435216-7.2507109.01148173.0086113.30426578.6860332.65445847 1.5041063l.64010631 1.4897541h1.11372757 1.116598l.33871097-.7893687c.18370764-.4334352.35019269-.8094618.36741528-.8324253.02009302-.0287043.02870432.2152824.02870432.7979801l.00287043.8381661h1.3864186 1.3864186l.20954153-.6027907c.1176877-.3329701.22102325-.5970498.22963455-.5855681.00861129.0086113.10907641.2755615.21815282.5941794l.20380066.5798272 6.22022593.0086113 6.2202259.0057409v-.3013954c0-.166485.0086113-.3013953.0229634-.3013953.0114817 0 .086113.0459269.1636146.1033355.2296346.1636147.5769568.3272293.8726113.4076014l.2755615.0746312 2.2217143.0028704h2.2217142l.3415814-.8037209c.1894485-.4420465.3530632-.8152026.3702857-.8324252.0143522-.0143522.0258339.2870431.0258339.8123322v.8381661l1.1682658-.0057409 1.1682658-.0086113.3042658-.4707508.3013953-.4736213.0086113.4793622.0057409.4793621h1.1625249 1.1625249v-2.698206-2.6982059h-1.1596545-1.156784l-.2985249.4736212c-.1636147.2583389-.3071363.4707508-.318618.4736213-.0143521 0-.0229634-.212412-.0229634-.4736213v-.4736212l-1.6992957.0057408-1.6992957.0086113-.1607442.4018605-.1607442.4018604-.4736212.0086113-.4707508.0057409-.1607442-.4076013-.1636147-.4104718h-1.3003056c-1.2601196 0-1.3117874.0028704-1.5471628.0660199-.2899136.0746313-.6487176.2439868-.8410365.3875083-.0746313.0602791-.1406512.106206-.1492625.106206s-.0143521-.1291694-.0143521-.2870432v-.2870431l-1.7423522.0028704h-1.7452226l-.3300996.4133422c-.1808373.2267641-.338711.4133422-.3501927.4162126-.0143522 0-.0229635-.1865781-.0229635-.4162126v-.4162126l-6.47569432.0057408-6.47569433.0086113-.16361462.4018605-.16648505.4018604h-.47075083-.47075083l-.16361462-.4018604-.16074418-.4018605-.80659136-.0086113-.80659136-.0057408v-8.78352161-2.30352159h34.4738869c-.0057408 2.91348836-.0124385 4.36831892-.020093 4.36449168-.0143522-.00287043-.1320399-.0631495-.2669502-.12916943-.4908438-.24685715.1463921-.22389369-6.5015282-.23250499l-5.9130897-.00574086-.3444518.42195349-.3444518.42482391-.0086113-.42195348-.0086113-.42482392h-1.116598-1.1194684v.71760797c0 .3961196-.0057409.71760797-.0143522.71760797-.0057409 0-.106206-.03157475-.2210233-.06889036-.2784318-.09472426-.6027906-.13203987-1.1194684-.13203987h-.4248239v-.61714286-.61714285h-1.707907-1.7050365l-.2784319.36741528c-.1550033.20093023-.2956545.38176744-.3128771.40186046-.0287043.03157475-.0947242-.03444518-.3444518-.36454485l-.3100067-.40473089h-2.83885709-2.8359867v2.69820597 2.69820597h2.85033886l2.84746843-.00287043.3013953-.39899003c.1664851-.21815283.3100067-.39899003.318618-.40186047.0114817 0 .1578737.18083721.3272292.40186047l.3071362.40186046h10.4024452 10.4024451v9.30019926 2.8201994h-34.4738869z"/><path d="m1.72512956 15.7601063c-.01435216-.0373157-.40760133-.9529834-.87261129-2.0408771l-.84677741-1.9719867.57695681.0057408.57695681.0086113.16074419.4018605.16074418.4018605.92140864.0086113.92140863.0057408.16648505-.4162126.16935548-.4162126h.58269767c.31861794 0 .57982725.0086113.57982725.0229634 0 .0114818-.38750831.9271495-.864 2.0380067l-.864 2.0150432h-.67168106c-.67168106 0-.67455149 0-.69751495-.0631495zm.95872425-1.601701c.13778073-.338711.25546844-.6343655.26407974-.6515881.01148172-.0287043-.10620598-.0373156-.53677077-.0373156-.5138073 0-.55112292.0028704-.53390033.0516678.13203987.3616744.52241861 1.2916943.53677076 1.2744717.01148173-.0114817.13203987-.2985249.2698206-.6372358z"/><path d="m4.93714284 13.7852491v-2.0380066h.51667774.51667774l.00574086 1.4581794.0086113 1.4553089.51667774-1.4581793.51667774-1.455309.45639867.0057408.45639867.0086113.51954817 1.4581794.51954817 1.4581794.00861129-1.4667907.00574087-1.4639202h.51667774.51667776v2.0380066 2.0380067h-.81520268-.81233222l-.43917608-1.2543788c-.23824585-.6917741-.44491694-1.2687309-.45639867-1.2802126s-.22389369.5511229-.4678804 1.2486379l-.44491694 1.2716013-.82381395.0086113-.82094352.0057409z"/><path d="m10.6980996 15.8031627c-.0114817-.0086113-.020093-.9271495-.020093-2.0380066v-2.0179136h1.6648505 1.6648505v.4592691.4592691h-1.1338206-1.1338206v.3444518.3444518h1.1051163 1.1051163v.444917.4449169h-1.1051163-1.1051163v.3300997.3300997h1.1338206 1.1338206v.4592691.4592691h-1.6447575c-.9070565 0-1.6562392-.0086113-1.6648505-.0200931z"/><path d="m14.581794 13.7881196v-2.0408771h.5166777.5166777v.717608.7176079h.2009303.1980598l.6085315-.7176079.6085316-.717608h.6401063.6429768l-.6372359.717608c-.3530631.3961196-.6429768.7290897-.6487176.7405714-.0028705.0143521.0631495.0459269.1492624.0717608.1951894.0631495.46501.2411163.5798273.3846379.2640797.3272292.3616744.7864983.2554684 1.1940996-.0602791.2267641-.1406512.3760266-.2956545.5425116-.1550033.1664851-.3128771.2640798-.5597342.3473223-.1693555.0574086-.2468571.0602791-1.475402.0717608l-1.3003056.0086113zm2.4082923 1.0448372c.1377808-.0803721.2066711-.1837077.2095416-.318618.0086112-.1607442-.0516678-.2870432-.1750964-.3616744-.0975947-.0631495-.1377807-.0660199-.7549236-.0746312l-.6544585-.0086113v.419083.4190831l.6401064-.0086113c.5769568-.0086113.6458471-.0143522.7348305-.0660199z"/><path d="m18.6578072 13.7852491v-2.0380066h.5166778.5166777v2.0380066 2.0380067h-.5166777-.5166778z"/><path d="m21.7406511 15.7801993c-.6286246-.1119469-1.0591894-.4190831-1.3232691-.9415017-.3243588-.6487176-.3013954-1.6275349.0574086-2.2590299.2640798-.4707508.8209435-.7864983 1.4409568-.8209435l.2583389-.0172226.2066711.4563987.2066711.4535282-.3071362.0172226c-.4764917.0287043-.6745515.1205582-.8668704.4076013-.1435216.2095416-.1837077.4047309-.1664851.7951097.0172226.3702857.0947243.5626046.3128771.757794.2296345.2066711.3128771.2238937 1.096505.2411163l.6802923.0114817v.4707508.4707509l-.6946445-.0028705c-.4363056 0-.7750166-.0172226-.9013156-.040186z"/><path d="m24.3125581 15.7601063c-.0143522-.0373157-.4076014-.9529834-.8726113-2.0408771l-.843907-1.9719867.5769568.0057408.5769568.0086113.1607442.4018605.1607442.4018605.9214086.0086113.9214087.0057408.166485-.4162126.1693555-.4162126h.5826977c.545382 0 .5855681.0028704.5683455.0516678-.0114818.0258338-.4018605.944372-.8697409 2.0380066l-.8525183 1.9863389h-.6688106c-.6688106 0-.6688106 0-.6975149-.0631495zm.9673355-1.6246645.2640797-.651588-.5339003-.0086113c-.292784-.0028705-.5396412 0-.5453821.0057408-.0086112.0086113.106206.3100067.2525981.6745515.146392.3645449.272691.6544585.2841727.6458472.0086113-.0086113.1320399-.3100066.2784319-.6659402z"/><path d="m27.5274418 13.7852491v-2.0380066h.5166777.5166777l.0057409 1.2859535.0086113 1.2859535.8180731-1.2802127.8180731-1.2773422.6401063-.0086113.6372359-.0057408-.0057409 2.0293953-.0086113 2.0322658-.5080664.0086113-.5109369.0057409-.0057409-1.2515083-.0086113-1.2515083-.8037209 1.2515083-.8037209 1.2515083h-.6515881-.6544584z"/><path d="m7.40571426 6.69528237v-2.03800664h1.65049833 1.65049831v.4592691.45926911h-1.13382057-1.13382059v.34445182.34445183h1.10511627 1.10511629v.44491694.44491694h-1.10511629-1.10511627v.31574751.31574751h1.13382059 1.13382057v.47362126.47362126h-1.65049831-1.65049833z"/><path d="m10.7928239 8.71893685c0-.0086113.3616744-.4678804.8037209-1.02187375.4965847-.62001329.7979801-1.01900332.7836279-1.03909634-.020093-.03444519-1.4667907-1.85142857-1.5529036-1.94902325-.0401861-.04879735-.0114818-.05166778.5999202-.05166778l.6429768.00287043.4592691.61427243c.252598.33871096.4678804.61427242.4764917.61427242.0086113.00287043.2296345-.27556146.4879734-.61427242l.4707508-.61714286h.6544585.6573289l-.086113.10907641c-1.0850232 1.35771428-1.5270697 1.92031893-1.5270697 1.94328239 0 .01435216.3559335.4678804.7893687 1.00465116.4334353.53677076.7893688.98455814.7893688.99891029 0 .01148173-.2755615.02009303-.6142724.02009303h-.6142724l-.1119469-.1349103c-.0631495-.07750166-.2784319-.35306312-.4793621-.61714286-.2038007-.26695016-.3760266-.48223255-.3875083-.48223255-.0086113.00287043-.2296346.27843189-.4879734.61714285l-.4678804.61714286h-.6429768c-.3530631 0-.6429767-.00574087-.6429767-.01435216z"/><path d="m15.3568106 6.6981528v-2.04087707h.5166777.5166778v.6573289.65732891l.79798.01148172c.7319602.01148173.8094618.01722259.9644651.07463123.6372359.23537542.9788173.82094352.8812226 1.50410631-.0746312.54251162-.3875083.92140863-.9013156 1.09363455-.1693555.05740863-.2468571.06027907-1.475402.07176079l-1.3003056.0086113zm2.4829236 1.00178073c.1119468-.10333555.1578737-.20954153.1578737-.35880399 0-.16361461-.0574086-.27556146-.1779668-.36454485-.0918538-.0631495-.1176877-.06601993-.7606644-.07463122l-.6688106-.0086113v.44778737.44778738l.6860332-.0086113.6860332-.00861129z"/><path d="m19.4902325 6.6981528v-2.04087707h.5166777.5166778v.71760797.71760797h.1951893.1980598l.5999203-.71473753.5999203-.71760798h.6401063c.3501927-.00287043.6372359.00287044.6372359.0086113s-.2899137.33584053-.6458472.73770099l-.6458472.72621927.1578738.04879734c.0861129.02583389.2095415.0803721.2784319.12055814.1750963.10046512.4162126.36454485.4965847.54538206.2813023.61140199.0516677 1.38928903-.4937143 1.67920265-.3616744.18944851-.3530631.18944851-1.7653156.20093023l-1.2859535.0086113zm2.4140332 1.04483721c.1176877-.0631495.1980598-.20380067.1980598-.35306312 0-.16361462-.0717608-.28130233-.2152824-.35019269-.106206-.05166778-.1808372-.05740864-.7405714-.05740864h-.6228837v.40186046.40186047h.6458471c.5310299 0 .6659402-.0086113.7348306-.04305648z"/><path d="m23.5662458 6.69528237v-2.03800664h1.6648505 1.6648505v.4592691.45926911h-1.1481728-1.1481728v.34445182.34445183h1.1194685 1.1223388l-.0086112.43917608-.0086113.43630564-1.1108572.0086113-1.1137276.00574086v.31574751.31574751l1.1424319.00574086 1.1395615.0086113v.4592691.4592691l-1.6562392.00861129-1.6591096.00574087z"/><path d="m28.3426444 8.70458469c-.4994551-.0717608-.8898339-.36454485-1.050578-.78362791-.0746313-.19231893-.1004652-.59130896-.0516678-.79798006.106206-.45639867.419083-.75779402.884093-.8553887.0832425-.01722259.4248239-.03157475.7692757-.03157475.6860333 0 .7778871-.01722259.8553887-.16935548.0574087-.10907641.0574087-.25833887 0-.3415814-.1004651-.14639202-.126299-.14926245-1.3175282-.14926245h-1.1051163v-.45926911-.4592691h1.1711362c.9415017 0 1.202711.0086113 1.3519735.04305648.39899.09472425.7032558.33871096.8726113.69751495.0889833.18657807.0918538.20667109.0918538.56547508 0 .35019269-.0057409.38463787-.0832425.55399335-.1033356.22676412-.3272293.43630565-.5482525.51954817-.2468572.09185382-.4764917.11768771-1.0993754.11768771-.6429768 0-.7147376.01435216-.7951097.17222591-.0717608.14065117-.0545382.25259801.0545382.36167442l.0975947.09759469h.9472425c.7290897 0 .9558538.00861129.9730764.03731561.0487974.07463123.3817675.83529568.3817675.87261129 0 .03157475-.2152824.03731562-1.1252093.03444519-.6200133-.00287044-1.1940997-.01435216-1.2744718-.02583389z"/><path d="m32.0569833 8.70458469c-.2382459-.04018605-.4908439-.14065116-.6401063-.25259801-.3702857-.28130232-.5511229-.74344186-.4736213-1.22567441.0775017-.49658472.3674153-.82094352.8467774-.94724252.126299-.03157475.3272293-.04305648.7922392-.04305648.3731562 0 .6573289-.01148173.7061263-.03157475.1980598-.07463123.2784319-.24972758.1980598-.43917608-.0775017-.18657807-.1033356-.1894485-1.3376213-.1894485h-1.0907641v-.46213954-.4592691l1.242897.0086113c1.1969701.01148172 1.2457674.01148172 1.409382.07463122.3358406.12629901.5339004.29565449.7118672.60853156.1062059.18657808.146392.40760133.1320398.72334884-.0086113.21815282-.0258339.29852492-.0889834.42769435-.1176877.24398671-.2554684.38463787-.4879734.49945515-.272691.13203986-.46501.15787375-1.1768771.15787375-.5080664 0-.611402.0086113-.6802923.04879734-.1578738.09185382-.1980598.34445183-.0746312.48797342l.0688903.0803721.9816877.01435216.9816877.01435216.1865781.41621262c.1004651.22963455.1951894.42769435.212412.44491694.0143521.01435216.0258338.03731562.0258338.04879734 0 .02870432-2.2676411.02296346-2.4456079-.00574086z"/></g></svg>