<svg xmlns:xlink="http://www.w3.org/1999/xlink" xmlns="http://www.w3.org/2000/svg" class="logo icon icon-dhl" width="142"  height="32" ><defs><symbol id="icon-dhl" viewBox="0 0 142 32"><title>dhl</title><path class="path1" fill="#fc0" d="M142.295-0.050v32.050h-17.755c-35.595 0-71.189 0-106.784 0h-17.756v-32.050h17.755c35.595 0 71.189 0 106.784 0h17.756z"></path><path class="path2" fill="#d40511" d="M25.027 5.718l-4.513 6.32h24.978c0.288 0.106 0.791-0.024 0.803 0.451v0.201c-0.858 1.507-2.072 2.902-3.010 4.364v0.15l-0.050 0.1 0.050 0.050c0.017 0.491 1.023 0.473 1.354 0.451h10.132l3.009-4.163 0.151-0.251c0.791-1.303 0.7-3.014-0.051-4.313l-0.15-0.351-0.251-0.301c-1.375-2.037-3.89-2.677-6.219-2.708h-26.232z"></path><path class="path3" fill="#d40511" d="M18.657 26.232l9.129-12.639h11.537c1.034 0.089 0.997 0.547 0.4 1.304l-2.307 3.26-0.1 0.15-0.15 0.201-0.051 0.1v0.401l0.051 0.1 0.1 0.1 0.15 0.050 0.201 0.050 0.251 0.050h0.1l0.15 0.050h15.498l-0.251 0.351c-2.867 3.87-7.553 6.616-12.439 6.47h-22.27z"></path><path class="path4" fill="#d40511" d="M70.971 19.411l-4.965 6.821h-13.042l4.915-6.821h13.091z"></path><path class="path5" fill="#d40511" d="M90.984 17.806h-32l8.777-12.088h13.040l-5.016 6.972h5.818l5.016-6.972h13.091l-8.726 12.088z"></path><path class="path6" fill="#d40511" d="M89.831 19.411l-4.966 6.821h-13.041l4.965-6.821h13.042z"></path><path class="path7" fill="#d40511" d="M0 22.069h19.26l-1.054 1.505h-18.206v-1.505z"></path><path class="path8" fill="#d40511" d="M0 19.411h21.216l-1.054 1.404h-20.162v-1.404z"></path><path class="path9" fill="#d40511" d="M0 24.777h17.303l-1.053 1.455h-16.25v-1.455z"></path><path class="path10" fill="#d40511" d="M142.295 23.574h-19.16l1.053-1.505h18.107v1.505z"></path><path class="path11" fill="#d40511" d="M142.295 26.232h-21.116l1.103-1.455h20.013v1.455z"></path><path class="path12" fill="#d40511" d="M126.143 19.411h16.151v1.404h-17.154l1.003-1.404z"></path><path class="path13" fill="#d40511" d="M117.817 5.718l-8.777 12.088h-13.842l8.777-12.088h13.842z"></path><path class="path14" fill="#d40511" d="M94.094 19.411l-1.404 1.956c-2.433 3.559 2.393 5.063 5.166 4.865h20.966l4.966-6.821h-29.693z"></path></symbol></defs>
<use xlink:href="#icon-dhl" stroke="#000000" stroke-width="0px"></use>
</svg>