<svg xmlns:xlink="http://www.w3.org/1999/xlink" xmlns="http://www.w3.org/2000/svg" class="logo icon icon-paypal" width="120"  height="32" ><defs><symbol id="icon-paypal" viewBox="0 0 120 32"><title>paypal</title><path class="path1" fill="#253b80" d="M44.811 6.545h-6.632c-0.454 0-0.84 0.33-0.911 0.778l-2.682 17.006c-0.053 0.335 0.207 0.638 0.547 0.638h3.166c0.454 0 0.84-0.33 0.911-0.779l0.723-4.587c0.070-0.449 0.457-0.779 0.91-0.779h2.099c4.368 0 6.89-2.114 7.548-6.303 0.297-1.833 0.013-3.273-0.846-4.281-0.943-1.107-2.614-1.693-4.834-1.693zM45.576 12.755c-0.363 2.38-2.181 2.38-3.939 2.38h-1.001l0.702-4.444c0.042-0.269 0.274-0.466 0.546-0.466h0.459c1.198 0 2.327 0 2.911 0.683 0.348 0.407 0.455 1.012 0.322 1.848z"></path><path class="path2" fill="#253b80" d="M64.634 12.679h-3.176c-0.271 0-0.504 0.198-0.546 0.466l-0.141 0.888-0.222-0.322c-0.688-0.998-2.221-1.331-3.751-1.331-3.509 0-6.507 2.658-7.090 6.386-0.303 1.86 0.128 3.638 1.183 4.879 0.968 1.14 2.352 1.616 4 1.616 2.828 0 4.396-1.818 4.396-1.818l-0.142 0.882c-0.053 0.337 0.207 0.64 0.545 0.64h2.861c0.455 0 0.839-0.33 0.911-0.779l1.716-10.869c0.054-0.335-0.205-0.638-0.544-0.638zM60.208 18.86c-0.306 1.814-1.746 3.032-3.583 3.032-0.922 0-1.659-0.296-2.132-0.856-0.469-0.557-0.648-1.349-0.498-2.231 0.286-1.799 1.75-3.056 3.559-3.056 0.902 0 1.635 0.3 2.118 0.865 0.484 0.571 0.676 1.368 0.537 2.247z"></path><path class="path3" fill="#253b80" d="M81.548 12.679h-3.191c-0.305 0-0.591 0.151-0.763 0.404l-4.401 6.483-1.866-6.23c-0.117-0.39-0.477-0.657-0.884-0.657h-3.136c-0.381 0-0.646 0.372-0.525 0.731l3.515 10.316-3.305 4.665c-0.26 0.367 0.002 0.873 0.451 0.873h3.187c0.303 0 0.586-0.147 0.757-0.396l10.614-15.321c0.254-0.367-0.007-0.868-0.454-0.868z"></path><path class="path4" fill="#179bd7" d="M92.113 6.545h-6.633c-0.453 0-0.839 0.33-0.91 0.778l-2.682 17.006c-0.053 0.335 0.207 0.638 0.545 0.638h3.404c0.316 0 0.587-0.231 0.636-0.545l0.761-4.82c0.070-0.449 0.457-0.779 0.91-0.779h2.098c4.369 0 6.89-2.114 7.549-6.303 0.298-1.833 0.012-3.273-0.847-4.281-0.942-1.107-2.612-1.693-4.832-1.693zM92.879 12.755c-0.362 2.38-2.18 2.38-3.939 2.38h-1l0.703-4.444c0.042-0.269 0.272-0.466 0.545-0.466h0.459c1.197 0 2.327 0 2.911 0.683 0.348 0.407 0.454 1.012 0.321 1.848z"></path><path class="path5" fill="#179bd7" d="M111.936 12.679h-3.174c-0.272 0-0.504 0.198-0.545 0.466l-0.141 0.888-0.223-0.322c-0.688-0.998-2.22-1.331-3.75-1.331-3.509 0-6.506 2.658-7.089 6.386-0.303 1.86 0.127 3.638 1.182 4.879 0.97 1.14 2.353 1.616 4 1.616 2.828 0 4.396-1.818 4.396-1.818l-0.142 0.882c-0.053 0.337 0.207 0.64 0.547 0.64h2.86c0.453 0 0.839-0.33 0.91-0.779l1.717-10.869c0.052-0.335-0.207-0.638-0.548-0.638zM107.509 18.86c-0.305 1.814-1.746 3.032-3.583 3.032-0.92 0-1.659-0.296-2.132-0.856-0.469-0.557-0.646-1.349-0.498-2.231 0.288-1.799 1.75-3.056 3.559-3.056 0.902 0 1.635 0.3 2.118 0.865 0.486 0.571 0.678 1.368 0.537 2.247z"></path><path class="path6" fill="#179bd7" d="M115.68 7.011l-2.722 17.317c-0.053 0.335 0.207 0.638 0.545 0.638h2.737c0.455 0 0.841-0.33 0.911-0.779l2.684-17.005c0.053-0.335-0.207-0.639-0.545-0.639h-3.064c-0.271 0.001-0.503 0.199-0.545 0.467z"></path><path class="path7" fill="#253b80" d="M7.046 28.271l0.507-3.221-1.13-0.026h-5.394l3.749-23.77c0.012-0.072 0.049-0.139 0.105-0.186s0.126-0.074 0.2-0.074h9.096c3.020 0 5.104 0.628 6.191 1.869 0.51 0.582 0.835 1.19 0.992 1.859 0.165 0.702 0.168 1.541 0.007 2.564l-0.012 0.075v0.655l0.51 0.289c0.43 0.228 0.771 0.489 1.033 0.787 0.436 0.497 0.719 1.13 0.838 1.879 0.123 0.771 0.082 1.688-0.119 2.727-0.233 1.195-0.609 2.235-1.117 3.087-0.467 0.785-1.063 1.435-1.77 1.939-0.675 0.479-1.477 0.843-2.384 1.075-0.879 0.229-1.88 0.344-2.979 0.344h-0.708c-0.506 0-0.998 0.182-1.384 0.509-0.387 0.334-0.643 0.789-0.721 1.288l-0.053 0.29-0.896 5.678-0.041 0.209c-0.011 0.066-0.029 0.099-0.056 0.121-0.024 0.020-0.059 0.034-0.093 0.034h-4.37z"></path><path class="path8" fill="#179bd7" d="M22.35 7.435v0 0c-0.027 0.174-0.058 0.351-0.093 0.533-1.2 6.159-5.303 8.286-10.544 8.286h-2.669c-0.641 0-1.181 0.465-1.281 1.098v0 0l-1.366 8.665-0.387 2.456c-0.065 0.415 0.255 0.789 0.674 0.789h4.733c0.56 0 1.037-0.407 1.125-0.96l0.047-0.241 0.891-5.655 0.057-0.31c0.087-0.555 0.564-0.962 1.125-0.962h0.708c4.586 0 8.175-1.862 9.225-7.249 0.438-2.251 0.211-4.13-0.948-5.452-0.351-0.399-0.786-0.729-1.296-0.999z"></path><path class="path9" fill="#222d65" d="M21.095 6.934c-0.183-0.053-0.372-0.102-0.566-0.145s-0.395-0.080-0.6-0.113c-0.72-0.116-1.508-0.172-2.352-0.172h-7.129c-0.175 0-0.342 0.040-0.492 0.112-0.329 0.158-0.573 0.469-0.632 0.85l-1.517 9.606-0.044 0.28c0.1-0.632 0.64-1.098 1.281-1.098h2.669c5.241 0 9.345-2.128 10.544-8.286 0.036-0.182 0.066-0.36 0.093-0.533-0.303-0.161-0.632-0.299-0.986-0.416-0.087-0.029-0.177-0.057-0.269-0.084z"></path><path class="path10" fill="#253b80" d="M9.323 7.466c0.059-0.381 0.303-0.692 0.632-0.849 0.15-0.072 0.316-0.112 0.492-0.112h7.129c0.845 0 1.633 0.055 2.352 0.172 0.206 0.033 0.405 0.071 0.6 0.113s0.383 0.092 0.566 0.145c0.091 0.027 0.181 0.055 0.27 0.083 0.354 0.117 0.683 0.256 0.986 0.416 0.357-2.276-0.003-3.825-1.233-5.229-1.357-1.545-3.805-2.206-6.938-2.206h-9.096c-0.64 0-1.186 0.465-1.285 1.099l-3.789 24.015c-0.075 0.475 0.292 0.904 0.771 0.904h5.615l1.41-8.945 1.517-9.606z"></path></symbol></defs>
<use xlink:href="#icon-paypal" stroke="#000000" stroke-width="0px"></use>
</svg>