<svg xmlns:xlink="http://www.w3.org/1999/xlink" xmlns="http://www.w3.org/2000/svg" height="13" viewBox="0 0 41 13" width="41"><g fill="none"><g fill="#004686"><path d="m14.2196246 12.5647467 2.0432547-12.35055096h3.2679882l-2.0445842 12.35055096z"/><path d="m29.338796.51865581c-.647467-.25067774-1.6620301-.51865586-2.9290625-.51865586-3.2289715-.00033526-5.5037364 1.67500526-5.5229904 4.07568849-.0181638 1.77452604 1.6238583 2.76456349 2.8634814 3.35530875 1.2720431.60489775 1.6996409.99130773 1.693585 1.53196438-.0080078.82740885-1.0158007 1.20597523-1.9551038 1.20597523-1.3079792-.0001341-2.0028902-.18710294-3.076109-.64821942l-.4210853-.19662577-.4586516 2.76476179c.7633955.3448998 2.1747591.6436625 3.6402263.6592175 3.4352177-.0002012 5.6652402-1.6558944 5.6905912-4.21940454.0123697-1.4051491-.8583173-2.4741185-2.7436303-3.35557791-1.1422303-.57163442-1.8418907-.95254774-1.8344687-1.53102466.0000651-.51349442.5921088-1.06232995 1.8714455-1.06232995 1.0687949-.01750316 1.8427342.2229139 2.4458498.47312414l.2929628.14223852.4429596-2.6764421z"/><path d="m37.7189108.22591821h-2.5254053c-.7822093 0-1.3676801.22044652-1.7112941 1.02472168l-4.8532744 11.31784401h3.4315045s.561188-1.5215708.6881355-1.8556019c.3751226 0 3.7085824.0052979 4.1851355.0052979.0979145.4322141.3976483 1.8505727.3976483 1.8505727l3.0325538-.0002683-2.6449997-12.34256609zm-4.0299263 7.9605802c.2703068-.71166247 1.3019921-3.45214736 1.3019921-3.45214736-.0191403.03265936.2682238-.71508136.4333244-1.17874689l.2211543 1.06447384s.6255098 2.94838071.756299 3.56662346l-2.7127698-.00020117z"/><path d="m11.4787815.22324919-3.19934787 8.4221302-.34094358-1.71135215c-.59556079-1.97323242-2.45144727-4.11049594-4.52608134-5.18065534l2.92552491 10.8007134 3.4576119-.0042249 5.14483398-12.32661121h-3.4615819z"/></g><path d="m5.31133461.21579138h-5.26961776l-.04173092.25712971c4.09965717 1.02202579 6.81236182 3.4927868 7.93844177 6.46108584l-1.14587483-5.67540254c-.19778234-.78200941-.77159673-1.01532023-1.48121872-1.04281301z" fill="#ef9b11"/></g></svg>