<svg id="Logo" xmlns="http://www.w3.org/2000/svg" width="196" height="73.892" viewBox="0 0 196 73.892">
  <rect x="0.868" y="0.7987" width="194.3023" height="72.2307" fill="#fff"/>
  <polygon points="194.813 41.207 18.463 41.207 18.463 29.765 18.463 18.322 194.813 18.322 194.813 41.207" fill="#fc0"/>
  <path d="M194.2714,1.7286V72.1634H1.7286V1.7286H194.2714M196,0H0V73.892H196V0Z" fill="#007c39"/>
  <path d="M27.4784,41.7264a9.2856,9.2856,0,0,1-6.6054-2.2537,7.9931,7.9931,0,0,1-2.41-6.137q0-.7974.1041-1.8379t.312-2.1151q1.04-5.6514,4.04-8.6161a10.42,10.42,0,0,1,7.6456-2.965,9.3338,9.3338,0,0,1,7.6627,3.4676L34.968,24.2164a5.5988,5.5988,0,0,0-1.9245-1.5429,5.7457,5.7457,0,0,0-2.41-.4681,5.5608,5.5608,0,0,0-4.3862,1.82,11.76,11.76,0,0,0-2.3057,5.7736q-.174.9017-.26,1.7855T23.595,33.093a4.3293,4.3293,0,0,0,1.0576,3.1381,3.9807,3.9807,0,0,0,2.9992,1.092,4.966,4.966,0,0,0,3.5366-1.3,6.2676,6.2676,0,0,0,1.7686-3.7275l.0345-.2081H28.4146l.728-4.1606h9.57l-.5549,3.2244Q36.32,41.7275,27.4784,41.7264Zm23.0234,0a9.6763,9.6763,0,0,1-6.7268-2.2186,7.7141,7.7141,0,0,1-2.4618-6.0335,24.4743,24.4743,0,0,1,.416-4.0916q.9706-5.617,3.9355-8.5988a10.27,10.27,0,0,1,7.6109-2.9823,9.68,9.68,0,0,1,6.7267,2.2192,7.7169,7.7169,0,0,1,2.4618,6.0335,24.4471,24.4471,0,0,1-.416,4.0915q-.971,5.6172-3.9354,8.5989A10.2709,10.2709,0,0,1,50.5018,41.7264Zm.1386-4.4033a5.1316,5.1316,0,0,0,4.1435-1.8378A12.0957,12.0957,0,0,0,56.9858,29.73q.173-.9009.26-1.8551t.0868-1.5774A4.02,4.02,0,0,0,56.24,23.2457a4.3243,4.3243,0,0,0-3.1033-1.04,5.1326,5.1326,0,0,0-4.1436,1.8379,12.0846,12.0846,0,0,0-2.2016,5.7558,18.58,18.58,0,0,0-.26,1.8546q-.0868.9541-.0866,1.5779a4.0186,4.0186,0,0,0,1.0921,3.0513A4.3231,4.3231,0,0,0,50.64,37.3231Z" fill="#4b4b4b"/>
  <path d="M74.114,41.7264a9.2857,9.2857,0,0,1-6.6054-2.2537,7.9935,7.9935,0,0,1-2.41-6.137q0-.7974.1041-1.8379t.312-2.1151q1.04-5.6514,4.04-8.6161A10.42,10.42,0,0,1,77.2,17.8016a9.334,9.334,0,0,1,7.6627,3.4676l-3.2592,2.9472a5.5985,5.5985,0,0,0-1.9244-1.5429,5.7457,5.7457,0,0,0-2.41-.4681,5.5609,5.5609,0,0,0-4.3863,1.82,11.76,11.76,0,0,0-2.3057,5.7736q-.174.9017-.26,1.7855t-.0865,1.5084a4.3293,4.3293,0,0,0,1.0575,3.1381,3.9809,3.9809,0,0,0,2.9992,1.092,4.9658,4.9658,0,0,0,3.5366-1.3,6.2676,6.2676,0,0,0,1.7686-3.7275l.0345-.2081H75.05l.7281-4.1606h9.57l-.5549,3.2244Q82.9554,41.7275,74.114,41.7264Zm13.1413-.52L91.2775,18.322h8.01a9.6739,9.6739,0,0,1,6.0333,1.6815,5.3149,5.3149,0,0,1,2.1843,4.4211q0,.4158-.052.9879t-.1561,1.1617a8.1182,8.1182,0,0,1-1.6122,3.8143,6.7551,6.7551,0,0,1-3.346,2.1151l3.4326,8.7029h-5.5824L97.3108,33.093H93.7394l-1.4216,8.1135ZM98.663,22.4481H95.6118l-1.1444,6.5188h3.1208a6.4635,6.4635,0,0,0,3.3633-.6935,3.2028,3.2028,0,0,0,1.387-2.3232,1.9594,1.9594,0,0,0,.0693-.4508v-.2082Q102.4078,22.4484,98.663,22.4481Zm10.7835,18.7584,4.0223-22.8845h15.0829l-.7628,4.3688h-9.9511l-.8669,4.82h8.9456l-.728,4.23h-8.9459l-.9014,5.0973h10.2981l-.7628,4.3687Zm19.833,0,4.0223-22.8845h15.0829l-.7628,4.3688h-9.9511l-.8669,4.82H145.75l-.728,4.23h-8.9459l-.9014,5.0973h10.2981l-.7628,4.3687Zm19.66,0,4.0223-22.8845H159.48l4.6116,16.1926h.5547L167.49,18.322h4.82l-4.022,22.8845h-6.5188L157.157,25.014h-.5549L153.759,41.2065Z" fill="#007c39"/>
</svg>
