<svg xmlns:xlink="http://www.w3.org/1999/xlink" xmlns="http://www.w3.org/2000/svg" height="27" viewBox="0 0 34 27" width="34"><g fill="none"><path d="m30.7897668.64102006v-.06602507h.0609381c.0134705 0 .0250167.00320511.0333556.00833327.0076974.00512816.0121876.01410244.0121876.02499978s-.0044902.0192306-.0121876.02435876c-.0083389.00576918-.0198851.00833326-.0333556.00833326zm.0615796.04615345c.0314312 0 .0558064-.00705122.0731257-.02115367.0173192-.01410244.0256581-.03333304.0256581-.0576918 0-.02051264-.0064145-.03717917-.0205265-.05064059-.0134705-.0128204-.0327141-.02115366-.0583723-.02435876l.0808232-.09294791h-.0628625l-.07505.09230689h-.0243753v-.09230689h-.0525992v.24679273zm-.0160364-.3320484c.0288654 0 .0558065.00576918.0801817.01666653.0250167.01089734.0468261.0256408.0654283.04423038.0186021.01858958.0333555.04038426.0442603.06602507.0102632.02499978.0160363.05192262.0160363.08076852 0 .02884591-.0057731.05576875-.0160363.08076853-.0109048.02499978-.0256582.04743549-.0442603.06602507-.0186022.01858958-.0404116.03333304-.0654283.04423038-.0243752.01025632-.0513163.01538448-.0801817.01538448s-.0564479-.00512816-.0814646-.01538448c-.0256581-.01089734-.048109-.0256408-.0667111-.04423038-.0186022-.01858958-.0333556-.04102529-.0436189-.06602507-.0109047-.02499978-.0160363-.05192262-.0160363-.08076853 0-.0288459.0051316-.05576874.0160363-.08076852.0102633-.02564081.0250167-.04743549.0436189-.06602507.0186021-.01858958.041053-.03333304.0667111-.04423038.0250167-.01089735.0525992-.01666653.0814646-.01666653zm0 .47371383c.0378458 0 .0724843-.00705122.1058399-.02115366.0327141-.01346142.060938-.03269203.0859547-.05705079.0243752-.02371774.0436189-.05192262.0577308-.08461465.014112-.032051.021168-.06666608.021168-.10320423 0-.03653814-.007056-.07115322-.021168-.10320423-.0141119-.032051-.0333556-.06025588-.0577308-.08461464-.0250167-.02371775-.0532406-.04294835-.0859547-.05705079-.0333556-.01410244-.0679941-.02115366-.1058399-.02115366-.0384872 0-.0737671.00705122-.1071227.02115366s-.062221.03333304-.0865962.05705079c-.0243753.02435876-.0436189.05256364-.0577308.08461464-.014112.03205101-.021168.06666609-.021168.10320423 0 .03653815.007056.07115323.021168.10320423.0141119.03269203.0333555.06089691.0577308.08461465.0243752.02435876.0532406.04358937.0865962.05705079.0333556.01410244.0686355.02115366.1071227.02115366zm-24.99166884.95063275c0 .47050872.30853913.85704382.81272156.85704382.48173156 0 .80694847-.36986857.80694847-.85704382s-.32521691-.85704382-.80694847-.85704382c-.50418243 0-.81272156.38653509-.81272156.85704382zm2.1687542 0v1.33844989h-.58243975v-.32499717c-.1847386.24102354-.46505377.39230427-.84607714.39230427-.75114202 0-1.33999631-.58845641-1.33999631-1.40575699 0-.8179416.58885429-1.40575699 1.33999631-1.40575699.38102337 0 .66133854.15128073.84607714.39230427v-.32499717h.58243975zm19.68235844 0c0 .47050872.3085391.85704382.8127216.85704382.482373 0 .8069484-.36986857.8069484-.85704382s-.3245754-.85704382-.8069484-.85704382c-.5041825 0-.8127216.38653509-.8127216.85704382zm2.1693957 0v2.41344053h-.5830812v-1.39998781c-.1847386.24102354-.4650538.39230427-.8460772.39230427-.751142 0-1.3399963-.58845641-1.3399963-1.40575699 0-.8179416.5888543-1.40575699 1.3399963-1.40575699.3810234 0 .6613386.15128073.8460772.39230427v-.32499717h.5830812zm-14.621932.88460768c.3752503 0 .6164368-.23525436.6780163-.64935332h-1.3900297c.062221.3865351.296993.64935332.7120134.64935332zm.0115462.52114931c-.7851391 0-1.3342233-.57114887-1.3342233-1.40575699 0-.85127464.5715351-1.40575699 1.3733519-1.40575699.4034742 0 .7729515.10064015 1.0981684.37499673l-.2854468.4314065c-.2245087-.17884459-.510597-.28012576-.779366-.28012576-.3752503 0-.717145.17371643-.8011754.65576352h1.9891472c.0057731.07243527.0115462.14551155.0115462.223716-.0057731.83460812-.5215017 1.40575699-1.2720022 1.40575699zm7.0328959-1.40575699c0 .47050872.3085391.85704382.8127215.85704382.4817316 0 .8069485-.36986857.8069485-.85704382s-.3252169-.85704382-.8069485-.85704382c-.5041824 0-.8127215.38653509-.8127215.85704382zm2.1687542 0v1.33844989h-.5824398v-.32499717c-.1853801.24102354-.4650538.39230427-.8460771.39230427-.7511421 0-1.3399963-.58845641-1.3399963-1.40575699 0-.8179416.5888542-1.40575699 1.3399963-1.40575699.3810233 0 .660697.15128073.8460771.39230427v-.32499717h.5824398zm-5.4581277 0c0-.81217242.565762-1.40575699 1.4291584-1.40575699.4034742 0 .6722432.0897428.9634631.31922799l-.2796737.47050872c-.2187357-.15704991-.448376-.24102354-.7011087-.24102354-.4650537.00576918-.8069484.34166369-.8069484.85704382s.3418947.85127464.8069484.85704382c.2527327 0 .482373-.08397363.7011087-.24102354l.2796737.47050872c-.2912199.22948519-.5599889.31922799-.9634631.31922799-.8633964 0-1.4291584-.59358457-1.4291584-1.40575699zm7.5094959 1.40575699c-.3361216 0-.5548573-.15704991-.7062403-.39230427v.32499717h-.5773081v-2.67689978h.5830812v1.50062797c0 .44294486.1905117.68909656.571535.68909656.1180275 0 .2411865-.01666652.3643456-.06730711l.179607.54871318c-.1289322.05064058-.296993.07307628-.4150204.07307628zm-15.6136191-.28012576c-.2803151.18461377-.6664701.28012576-1.09239525.28012576-.67865777 0-1.11548759-.32499717-1.11548759-.85704382 0-.43653466.32521691-.70576309.92433446-.78973671l.27518354-.03910223c.31944384-.0448714.47018544-.12884503.47018544-.28012576 0-.20704948-.2129626-.32499717-.61066375-.32499717-.40347424 0-.69469412.12884503-.89097888.28012576l-.27454209-.45320118c.31944383-.23525436.72291807-.34743287 1.15974789-.34743287.77359293 0 1.22196883.36409939 1.22196883.87371034 0 .47050872-.3527994.71666043-.9358806.80063406l-.27454207.03974324c-.25209122.03333304-.45414906.08333261-.45414906.26281822 0 .19615214.19051168.31345881.50995551.31345881.34189472 0 .67288472-.12884503.83517242-.22948518zm7.5152689.28012576c-.3361216 0-.5548572-.15704991-.7055988-.39230427v.32499717h-.5773081v-2.67689978h.5824397v1.50062797c0 .44294486.1905117.68909656.5715351.68909656.1180274 0 .2411865-.01666652.3643456-.06730711l.1796069.54871318c-.1289321.05064058-.2969929.07307628-.4150204.07307628zm-4.9706229-.0673071h-.9525584v.81217241h-.5888543v-.81217241h-.5433111v-.53204665h.5433111v-1.22114322c0-.62114844.2411865-.99101701.9301075-.99101701.2527327 0 .5439525.07820444.7286911.20704948l-.1680608.4987136c-.1738339-.10064015-.3643455-.15128073-.5157286-.15128073-.2912198 0-.3861549.17948562-.3861549.44807302v1.20960486h.9525584zm-8.70901388-2.67689978v1.68011358c0 .6326868-.40347423 1.05832412-1.05390806 1.0640933-.3418947.00576918-.69469411-.10064015-.9416537-.4762779-.1847386.29679229-.47595848.4762779-.8852058.4762779-.28608825 0-.56576196-.08397362-.7844976-.39743243v.33012533h-.58308121v-2.67689978h.58821284v1.48396144c0 .46473955.2578643.71153227.65620691.71153227.38679644 0 .58243975-.25192088.58243975-.70576309v-1.48973062h.58885429v1.48396144c0 .46473955.26876901.71153227.65556545.71153227.39770116 0 .58821284-.25192088.58821284-.70576309v-1.48973062z" fill="#231f20" transform="matrix(1 0 0 -1 1.682507 26.990031)"/><path d="m1.35798107 0v.55597141h-.111l-.12845282-.38188856-.12775472.38188856h-.11169811v-.55597141h.07888679v.41925713l.12007547-.36183713h.08167925l.12007546.36274856v-.42016856zm-.70439621 0v.46118285h.14241509v.09387714h-.36301885v-.09387714h.14241509v-.46118285z" fill="#f79410" transform="matrix(1 0 0 -1 31.548581 17.916931)"/><path d="m21.2340089 19.3285589h-8.8274262v-15.85370811h8.8274262z" fill="#ff5f00"/><path d="m12.8290695 10.256321c0 3.2159976 1.5067742 6.0807163 3.853211 7.9268541-1.715888 1.3499882-3.8814349 2.1557504-6.2349277 2.1557504-5.57166493 0-10.08813885-4.5140633-10.08813885-10.0826045 0-5.56854129 4.51647392-10.08260456 10.08813885-10.08260456 2.3534928 0 4.5190397.80576221 6.2349277 2.15575046-2.3464368 1.84613778-3.853211 4.71085643-3.853211 7.9268541" fill="#eb001b" transform="matrix(1 0 0 -1 .143019 21.656744)"/><path d="m16.6777904 10.256321c0-5.56854129-4.516474-10.08260456-10.08813884-10.08260456-2.35349281 0-4.51903974.80576221-6.23556924 2.15575046 2.34707827 1.84613778 3.85385248 4.71085643 3.85385248 7.9268541 0 3.2159976-1.50677421 6.0807163-3.85385248 7.9268541 1.7165295 1.3499882 3.88207643 2.1557504 6.23556924 2.1557504 5.57166484 0 10.08813884-4.5140633 10.08813884-10.0826045" fill="#f79e1b" transform="matrix(1 0 0 -1 16.461595 21.656744)"/></g></svg>